0
SECTION
2
HEADER
9
$INSUNITS
70
4
9
$ACADVER
1
AC1014
9
$HANDSEED
5
FFFF
0
ENDSEC
0
SECTION
2
TABLES
0
TABLE
2
VPORT
5
8
100
AcDbSymbolTable
0
ENDTAB
0
TABLE
2
LTYPE
5
5
100
AcDbSymbolTable
0
LTYPE
5
14
100
AcDbSymbolTableRecord
100
AcDbLinetypeTableRecord
2
BYBLOCK
70
0
0
LTYPE
5
15
100
AcDbSymbolTableRecord
100
AcDbLinetypeTableRecord
2
BYLAYER
70
0
0
ENDTAB
0
TABLE
2
LAYER
5
2
100
AcDbSymbolTable
70
2
0
LAYER
5
50
100
AcDbSymbolTableRecord
100
AcDbLayerTableRecord
2
0
70
0
6
CONTINUOUS
0
ENDTAB
0
TABLE
2
STYLE
5
3
100
AcDbSymbolTable
70
1
0
STYLE
5
11
100
AcDbSymbolTableRecord
100
AcDbTextStyleTableRecord
2
STANDARD
70
0
0
ENDTAB
0
TABLE
2
VIEW
5
6
100
AcDbSymbolTable
70
0
0
ENDTAB
0
TABLE
2
UCS
5
7
100
AcDbSymbolTable
70
0
0
ENDTAB
0
TABLE
2
APPID
5
9
100
AcDbSymbolTable
70
2
0
APPID
5
12
100
AcDbSymbolTableRecord
100
AcDbRegAppTableRecord
2
ACAD
70
0
0
ENDTAB
0
TABLE
2
DIMSTYLE
5
A
100
AcDbSymbolTable
70
1
0
ENDTAB
0
TABLE
2
BLOCK_RECORD
5
1
100
AcDbSymbolTable
70
1
0
BLOCK_RECORD
5
1F
100
AcDbSymbolTableRecord
100
AcDbBlockTableRecord
2
*MODEL_SPACE
0
BLOCK_RECORD
5
1B
100
AcDbSymbolTableRecord
100
AcDbBlockTableRecord
2
*PAPER_SPACE
0
ENDTAB
0
ENDSEC
0
SECTION
2
BLOCKS
0
BLOCK
5
20
100
AcDbEntity
100
AcDbBlockBegin
2
*MODEL_SPACE
0
ENDBLK
5
21
100
AcDbEntity
100
AcDbBlockEnd
0
BLOCK
5
1C
100
AcDbEntity
100
AcDbBlockBegin
2
*PAPER_SPACE
0
ENDBLK
5
1D
100
AcDbEntity
100
AcDbBlockEnd
0
ENDSEC
0
SECTION
2
ENTITIES
0
LWPOLYLINE
5
100
100
AcDbEntity
8
0
100
AcDbPolyline
90
51
70
1
43
0.0
10
170.72500000000005
20
31
10
164.22500000000002
20
31
10
164.22500000000002
20
35.75
10
160.57500000000005
20
35.75
10
160.57500000000005
20
31
10
154.07500000000005
20
31
10
154.07500000000005
20
35.75
10
150.42500000000004
20
35.75
10
150.42500000000004
20
31
10
143.92500000000004
20
31
10
143.92500000000004
20
35.75
10
140.27500000000003
20
35.75
10
140.27500000000003
20
31
10
133.77500000000003
20
31
10
133.77500000000003
20
35.75
10
130.12500000000003
20
35.75
10
130.12500000000003
20
31
10
123.62500000000004
20
31
10
123.62500000000004
20
35.75
10
119.97500000000002
20
35.75
10
119.97500000000002
20
31
10
119.97500000000002
20
-31
10
119.97500000000002
20
-35.75
10
123.62500000000004
20
-35.75
10
123.62500000000004
20
-31
10
130.12500000000003
20
-31
10
130.12500000000003
20
-35.75
10
133.77500000000003
20
-35.75
10
133.77500000000003
20
-31
10
140.27500000000003
20
-31
10
140.27500000000003
20
-35.75
10
143.92500000000004
20
-35.75
10
143.92500000000004
20
-31
10
150.42500000000004
20
-31
10
150.42500000000004
20
-35.75
10
154.07500000000005
20
-35.75
10
154.07500000000005
20
-31
10
160.57500000000005
20
-31
10
160.57500000000005
20
-35.75
10
164.22500000000002
20
-35.75
10
164.22500000000002
20
-31
10
170.72500000000005
20
-31
10
170.72500000000005
20
-35.75
10
174.37500000000003
20
-35.75
10
174.37500000000003
20
-31
10
179.57500000000005
20
-31
10
179.57500000000005
20
0
10
179.57500000000005
20
31
10
174.37500000000003
20
31
10
174.37500000000003
20
35.75
10
170.72500000000005
20
35.75
0
LWPOLYLINE
5
101
100
AcDbEntity
8
0
100
AcDbPolyline
90
4
70
1
43
0.0
10
117.77500000000003
20
36.649999999999999
10
182.77500000000003
20
36.649999999999999
10
182.77500000000003
20
-36.649999999999999
10
117.77500000000003
20
-36.649999999999999
0
LINE
5
102
100
AcDbEntity
8
0
100
AcDbLine
10
185.27500000000003
20
-40
30
0
11
185.27500000000003
21
40
31
0
0
LINE
5
103
100
AcDbEntity
8
0
100
AcDbLine
10
115.27500000000003
20
40
30
0
11
115.27500000000003
21
-40
31
0
0
LINE
5
104
100
AcDbEntity
8
0
100
AcDbLine
10
119.97500000000002
20
31
30
0
11
117.77500000000003
21
31
31
0
0
LINE
5
105
100
AcDbEntity
8
0
100
AcDbLine
10
179.57500000000005
20
0
30
0
11
182.77500000000003
21
0
31
0
0
LINE
5
106
100
AcDbEntity
8
0
100
AcDbLine
10
119.97500000000002
20
-31
30
0
11
117.77500000000003
21
-31
31
0
0
LINE
5
107
100
AcDbEntity
8
0
100
AcDbLine
10
115.27500000000003
20
-40
30
0
11
185.27500000000003
21
-40
31
0
0
LINE
5
108
100
AcDbEntity
8
0
100
AcDbLine
10
185.27500000000003
20
40
30
0
11
115.27500000000003
21
40
31
0
0
LINE
5
109
100
AcDbEntity
8
0
100
AcDbLine
10
115.27500000000003
20
-40
30
0
11
115.27500000000003
21
-40.749940292153966
31
0
0
LINE
5
110
100
AcDbEntity
8
0
100
AcDbLine
10
115.27500000000003
20
40
30
0
11
115.27500000000003
21
40.75
31
0
0
LINE
5
111
100
AcDbEntity
8
0
100
AcDbLine
10
115.27500000000003
20
40.75
30
0
11
90.275000000000034
21
40.75
31
0
0
LINE
5
112
100
AcDbEntity
8
0
100
AcDbLine
10
115.27500000000003
20
40.75
30
0
11
115.27500000000003
21
55.75
31
0
0
LINE
5
113
100
AcDbEntity
8
0
100
AcDbLine
10
115.27500000000003
20
-40.749940292153966
30
0
11
115.27500000000003
21
-55.749940292153966
31
0
0
LINE
5
114
100
AcDbEntity
8
0
100
AcDbLine
10
115.27500000000003
20
-55.749940292153966
30
0
11
150.27500000000003
21
-40
31
0
0
LINE
5
115
100
AcDbEntity
8
0
100
AcDbLine
10
115.27500000000003
20
55.75
30
0
11
150.27500000000003
21
40
31
0
0
LINE
5
116
100
AcDbEntity
8
0
100
AcDbLine
10
115.27500000000003
20
55.75
30
0
11
90.275000000000034
21
55.75
31
0
0
LINE
5
117
100
AcDbEntity
8
0
100
AcDbLine
10
115.27500000000003
20
0
30
0
11
105.27500000000003
21
0
31
0
0
LINE
5
118
100
AcDbEntity
8
0
100
AcDbLine
10
105.27500000000003
20
0
30
0
11
105.27500000000003
21
55.75
31
0
0
LWPOLYLINE
5
119
100
AcDbEntity
8
0
100
AcDbPolyline
90
4
70
1
43
0.0
10
184.08141409196531
20
-38.293693459826756
10
116.46858590803474
20
-38.293693459826756
10
116.46858590803474
20
38.293693459826756
10
184.08141409196531
20
38.293693459826756
0
LINE
5
120
100
AcDbEntity
8
0
100
AcDbLine
10
90.275000000000034
20
55.75
30
0
11
69.275000000000034
21
55.75
31
0
0
LINE
5
121
100
AcDbEntity
8
0
100
AcDbLine
10
65.275000000000048
20
51.75
30
0
11
65.275000000000034
21
44.750000000000007
31
0
0
LINE
5
122
100
AcDbEntity
8
0
100
AcDbLine
10
69.275000000000034
20
40.749999999999993
30
0
11
90.275000000000034
21
40.75
31
0
0
LWPOLYLINE
5
123
100
AcDbEntity
8
0
100
AcDbPolyline
90
4
70
1
43
0.0
10
97.775000000000048
20
44.750000000000007
10
72.775000000000034
20
44.750000000000007
42
-0.99999999999999989
10
72.775000000000034
20
51.75
10
97.77500000000002
20
51.75
42
-0.99999999999999989
0
LWPOLYLINE
5
124
100
AcDbEntity
8
0
100
AcDbPolyline
90
4
70
1
43
0.0
10
97.775000000000048
20
-44.750000000000007
10
72.775000000000034
20
-44.750000000000007
42
0.99999999999999989
10
72.775000000000034
20
-51.75
10
97.775000000000034
20
-51.75
42
0.99999999999999989
0
LINE
5
125
100
AcDbEntity
8
0
100
AcDbLine
10
69.275000000000034
20
-40.75
30
0
11
90.275000000000034
21
-40.75
31
0
0
LINE
5
126
100
AcDbEntity
8
0
100
AcDbLine
10
115.27500000000003
20
-40.75
30
0
11
90.275000000000034
21
-40.75
31
0
0
LINE
5
127
100
AcDbEntity
8
0
100
AcDbLine
10
90.275000000000034
20
-55.75
30
0
11
69.275000000000034
21
-55.75
31
0
0
LINE
5
128
100
AcDbEntity
8
0
100
AcDbLine
10
65.275000000000034
20
-51.750000000000007
30
0
11
65.275000000000048
21
-44.750000000000007
31
0
0
LINE
5
129
100
AcDbEntity
8
0
100
AcDbLine
10
90.275000000000034
20
-55.75
30
0
11
115.27500000000003
21
-55.749940292153966
31
0
0
LINE
5
130
100
AcDbEntity
8
0
100
AcDbLine
10
105.27500000000003
20
0
30
0
11
105.27513314841114
21
-55.74996417497438
31
0
0
ARC
5
131
100
AcDbEntity
8
0
100
AcDbCircle
10
69.275000000000034
20
51.750000000000007
30
0
40
3.9999999999999947
210
0
220
-0
230
1
100
AcDbArc
50
90
51
180
0
ARC
5
132
100
AcDbEntity
8
0
100
AcDbCircle
10
69.275000000000034
20
44.75
30
0
40
4.0000000000000036
210
0
220
0
230
1
100
AcDbArc
50
180
51
270
0
ARC
5
133
100
AcDbEntity
8
0
100
AcDbCircle
10
69.275000000000034
20
-44.75
30
0
40
3.9999999999999947
210
0
220
-0
230
1
100
AcDbArc
50
90
51
180
0
ARC
5
134
100
AcDbEntity
8
0
100
AcDbCircle
10
69.275000000000034
20
-51.75
30
0
40
4.0000000000000036
210
0
220
0
230
1
100
AcDbArc
50
180
51
270
0
ENDSEC
0
SECTION
2
OBJECTS
0
DICTIONARY
5
C
100
AcDbDictionary
3
ACAD_GROUP
350
D
3
ACAD_MLINESTYLE
350
17
0
DICTIONARY
5
D
100
AcDbDictionary
0
DICTIONARY
5
1A
330
C
100
AcDbDictionary
0
DICTIONARY
5
17
100
AcDbDictionary
0
ENDSEC
0
EOF
