0
SECTION
2
HEADER
9
$INSUNITS
70
4
9
$ACADVER
1
AC1014
9
$HANDSEED
5
FFFF
0
ENDSEC
0
SECTION
2
TABLES
0
TABLE
2
VPORT
5
8
100
AcDbSymbolTable
0
ENDTAB
0
TABLE
2
LTYPE
5
5
100
AcDbSymbolTable
0
LTYPE
5
14
100
AcDbSymbolTableRecord
100
AcDbLinetypeTableRecord
2
BYBLOCK
70
0
0
LTYPE
5
15
100
AcDbSymbolTableRecord
100
AcDbLinetypeTableRecord
2
BYLAYER
70
0
0
ENDTAB
0
TABLE
2
LAYER
5
2
100
AcDbSymbolTable
70
2
0
LAYER
5
50
100
AcDbSymbolTableRecord
100
AcDbLayerTableRecord
2
0
70
0
6
CONTINUOUS
0
ENDTAB
0
TABLE
2
STYLE
5
3
100
AcDbSymbolTable
70
1
0
STYLE
5
11
100
AcDbSymbolTableRecord
100
AcDbTextStyleTableRecord
2
STANDARD
70
0
0
ENDTAB
0
TABLE
2
VIEW
5
6
100
AcDbSymbolTable
70
0
0
ENDTAB
0
TABLE
2
UCS
5
7
100
AcDbSymbolTable
70
0
0
ENDTAB
0
TABLE
2
APPID
5
9
100
AcDbSymbolTable
70
2
0
APPID
5
12
100
AcDbSymbolTableRecord
100
AcDbRegAppTableRecord
2
ACAD
70
0
0
ENDTAB
0
TABLE
2
DIMSTYLE
5
A
100
AcDbSymbolTable
70
1
0
ENDTAB
0
TABLE
2
BLOCK_RECORD
5
1
100
AcDbSymbolTable
70
1
0
BLOCK_RECORD
5
1F
100
AcDbSymbolTableRecord
100
AcDbBlockTableRecord
2
*MODEL_SPACE
0
BLOCK_RECORD
5
1B
100
AcDbSymbolTableRecord
100
AcDbBlockTableRecord
2
*PAPER_SPACE
0
ENDTAB
0
ENDSEC
0
SECTION
2
BLOCKS
0
BLOCK
5
20
100
AcDbEntity
100
AcDbBlockBegin
2
*MODEL_SPACE
0
ENDBLK
5
21
100
AcDbEntity
100
AcDbBlockEnd
0
BLOCK
5
1C
100
AcDbEntity
100
AcDbBlockBegin
2
*PAPER_SPACE
0
ENDBLK
5
1D
100
AcDbEntity
100
AcDbBlockEnd
0
ENDSEC
0
SECTION
2
ENTITIES
0
LINE
5
100
100
AcDbEntity
8
0
100
AcDbLine
10
0
20
0
30
0
11
9.5
21
0
31
0
0
LINE
5
101
100
AcDbEntity
8
0
100
AcDbLine
10
9.5
20
0
30
0
11
9.5
21
-10
31
0
0
LINE
5
102
100
AcDbEntity
8
0
100
AcDbLine
10
9.5
20
-10
30
0
11
23.5
21
-10
31
0
0
LINE
5
103
100
AcDbEntity
8
0
100
AcDbLine
10
23.5
20
-10
30
0
11
23.5
21
-13
31
0
0
LINE
5
104
100
AcDbEntity
8
0
100
AcDbLine
10
23.5
20
-13
30
0
11
19.850000000000001
21
-13
31
0
0
LINE
5
105
100
AcDbEntity
8
0
100
AcDbLine
10
19.850000000000001
20
-13
30
0
11
19.850000000000001
21
-20
31
0
0
LINE
5
106
100
AcDbEntity
8
0
100
AcDbLine
10
19.850000000000001
20
-20
30
0
11
16.5
21
-20
31
0
0
LINE
5
107
100
AcDbEntity
8
0
100
AcDbLine
10
16.5
20
-20
30
0
11
16.5
21
-33
31
0
0
LINE
5
108
100
AcDbEntity
8
0
100
AcDbLine
10
16.5
20
-33
30
0
11
11.500000000000002
21
-33
31
0
0
LINE
5
109
100
AcDbEntity
8
0
100
AcDbLine
10
11.500000000000002
20
-33
30
0
11
11.500000000000002
21
-38
31
0
0
LINE
5
110
100
AcDbEntity
8
0
100
AcDbLine
10
11.500000000000002
20
-38
30
0
11
9.0000000000000018
21
-38
31
0
0
LINE
5
111
100
AcDbEntity
8
0
100
AcDbLine
10
9.0000000000000018
20
-38
30
0
11
9.0000000000000018
21
-54
31
0
0
LINE
5
112
100
AcDbEntity
8
0
100
AcDbLine
10
0
20
-13
30
0
11
0
21
-38
31
0
0
LINE
5
113
100
AcDbEntity
8
0
100
AcDbLine
10
0
20
-38
30
0
11
0
21
-54
31
0
0
LINE
5
114
100
AcDbEntity
8
0
100
AcDbLine
10
9.0000000000000018
20
-54
30
0
11
15.500000000000004
21
-54
31
0
0
LINE
5
115
100
AcDbEntity
8
0
100
AcDbLine
10
15.500000000000004
20
-54
30
0
11
15.500000000000004
21
-64
31
0
0
LINE
5
116
100
AcDbEntity
8
0
100
AcDbLine
10
15.500000000000004
20
-64
30
0
11
17
21
-64
31
0
0
LINE
5
117
100
AcDbEntity
8
0
100
AcDbLine
10
17
20
-64
30
0
11
17
21
-66
31
0
0
LINE
5
118
100
AcDbEntity
8
0
100
AcDbLine
10
17
20
-66
30
0
11
11
21
-66
31
0
0
LINE
5
119
100
AcDbEntity
8
0
100
AcDbLine
10
11
20
-66
30
0
11
11
21
-69
31
0
0
LINE
5
120
100
AcDbEntity
8
0
100
AcDbLine
10
11
20
-69
30
0
11
9.0000000000000018
21
-69
31
0
0
LINE
5
121
100
AcDbEntity
8
0
100
AcDbLine
10
9.0000000000000018
20
-69
30
0
11
9.0000000000000018
21
-81.000000000000014
31
0
0
LINE
5
122
100
AcDbEntity
8
0
100
AcDbLine
10
9.0000000000000018
20
-81.000000000000014
30
0
11
13.5
21
-81.000000000000014
31
0
0
LINE
5
123
100
AcDbEntity
8
0
100
AcDbLine
10
13.5
20
-81.000000000000014
30
0
11
17
21
-81.000000000000014
31
0
0
LINE
5
124
100
AcDbEntity
8
0
100
AcDbLine
10
17
20
-81.000000000000014
30
0
11
17
21
-83.500000000000014
31
0
0
LINE
5
125
100
AcDbEntity
8
0
100
AcDbLine
10
13.5
20
-81.000000000000014
30
0
11
17
21
-83.500000000000014
31
0
0
LINE
5
126
100
AcDbEntity
8
0
100
AcDbLine
10
17
20
-83.500000000000014
30
0
11
17
21
-86.500000000000028
31
0
0
LINE
5
127
100
AcDbEntity
8
0
100
AcDbLine
10
17
20
-86.500000000000028
30
0
11
13.5
21
-89.000001326203346
31
0
0
LINE
5
128
100
AcDbEntity
8
0
100
AcDbLine
10
13.5
20
-89.000001326203346
30
0
11
17
21
-91.500001326203346
31
0
0
LINE
5
129
100
AcDbEntity
8
0
100
AcDbLine
10
17
20
-91.500001326203346
30
0
11
17
21
-93.500001326203346
31
0
0
LINE
5
130
100
AcDbEntity
8
0
100
AcDbLine
10
17
20
-93.500001326203346
30
0
11
13.5
21
-96.000001430511475
31
0
0
LINE
5
131
100
AcDbEntity
8
0
100
AcDbLine
10
17
20
-98.500001430511475
30
0
11
13.5
21
-96.000001430511475
31
0
0
LINE
5
132
100
AcDbEntity
8
0
100
AcDbLine
10
17
20
-98.500001430511475
30
0
11
17
21
-101.50000143051147
31
0
0
LINE
5
133
100
AcDbEntity
8
0
100
AcDbLine
10
17
20
-106.50000143051147
30
0
11
13.5
21
-104.00000143051147
31
0
0
LINE
5
134
100
AcDbEntity
8
0
100
AcDbLine
10
17
20
-106.50000143051147
30
0
11
17
21
-109.50000143051149
31
0
0
LINE
5
135
100
AcDbEntity
8
0
100
AcDbLine
10
17
20
-114.50000143051147
30
0
11
13.5
21
-112.00000143051147
31
0
0
LINE
5
136
100
AcDbEntity
8
0
100
AcDbLine
10
17
20
-114.50000143051147
30
0
11
17
21
-117.50000143051147
31
0
0
LINE
5
137
100
AcDbEntity
8
0
100
AcDbLine
10
17
20
-101.50000143051147
30
0
11
13.5
21
-104.00000143051147
31
0
0
LINE
5
138
100
AcDbEntity
8
0
100
AcDbLine
10
17
20
-109.50000143051149
30
0
11
13.5
21
-112.00000143051147
31
0
0
LINE
5
139
100
AcDbEntity
8
0
100
AcDbLine
10
17
20
-117.50000143051147
30
0
11
13.5
21
-120.00000143051147
31
0
0
LINE
5
140
100
AcDbEntity
8
0
100
AcDbLine
10
17
20
-122.50000143051147
30
0
11
13.5
21
-120.00000143051147
31
0
0
LINE
5
141
100
AcDbEntity
8
0
100
AcDbLine
10
17
20
-122.50000143051147
30
0
11
17
21
-124.50000143051147
31
0
0
LINE
5
142
100
AcDbEntity
8
0
100
AcDbLine
10
13.5
20
-127.00000143051147
30
0
11
17
21
-124.50000143051147
31
0
0
LINE
5
143
100
AcDbEntity
8
0
100
AcDbLine
10
13.5
20
-127.00000143051147
30
0
11
17
21
-129.50000143051147
31
0
0
LINE
5
144
100
AcDbEntity
8
0
100
AcDbLine
10
17
20
-129.50000143051147
30
0
11
17
21
-132.50000143051147
31
0
0
LINE
5
145
100
AcDbEntity
8
0
100
AcDbLine
10
13.5
20
-135.00000143051147
30
0
11
17
21
-132.50000143051147
31
0
0
LINE
5
146
100
AcDbEntity
8
0
100
AcDbLine
10
13.5
20
-135.00000143051147
30
0
11
17
21
-137.50000143051147
31
0
0
LINE
5
147
100
AcDbEntity
8
0
100
AcDbLine
10
17
20
-137.50000143051147
30
0
11
17
21
-139.50000143051147
31
0
0
LINE
5
148
100
AcDbEntity
8
0
100
AcDbLine
10
17
20
-144.50000143051147
30
0
11
17
21
-146.50000143051147
31
0
0
LINE
5
149
100
AcDbEntity
8
0
100
AcDbLine
10
17
20
-139.50000143051147
30
0
11
13.5
21
-142.00000143051147
31
0
0
LINE
5
150
100
AcDbEntity
8
0
100
AcDbLine
10
13.5
20
-142.00000143051147
30
0
11
17
21
-144.50000143051147
31
0
0
LINE
5
151
100
AcDbEntity
8
0
100
AcDbLine
10
17
20
-146.50000143051147
30
0
11
13.5
21
-149.00000143051147
31
0
0
LINE
5
152
100
AcDbEntity
8
0
100
AcDbLine
10
13.5
20
-149.00000143051147
30
0
11
17
21
-151.50000143051147
31
0
0
LINE
5
153
100
AcDbEntity
8
0
100
AcDbLine
10
17
20
-151.50000143051147
30
0
11
17
21
-155.50000143051147
31
0
0
LINE
5
154
100
AcDbEntity
8
0
100
AcDbLine
10
17
20
-155.50000143051147
30
0
11
18.000000000000004
21
-155.50000143051147
31
0
0
LINE
5
155
100
AcDbEntity
8
0
100
AcDbLine
10
18.000000000000004
20
-155.50000143051147
30
0
11
18.000000000000004
21
-157.50000143051147
31
0
0
LINE
5
156
100
AcDbEntity
8
0
100
AcDbLine
10
18.000000000000004
20
-157.50000143051147
30
0
11
30.000000000000004
21
-157.50000143051147
31
0
0
LINE
5
157
100
AcDbEntity
8
0
100
AcDbLine
10
30.000000000000004
20
-157.50000143051147
30
0
11
32.500000000000007
21
-157.50000143051147
31
0
0
LINE
5
158
100
AcDbEntity
8
0
100
AcDbLine
10
32.500000000000007
20
-157.50000143051147
30
0
11
35.000000000000007
21
-157.50000143051147
31
0
0
LINE
5
159
100
AcDbEntity
8
0
100
AcDbLine
10
35.000000000000007
20
-157.50000143051147
30
0
11
35.000000000000007
21
-206.50000143051145
31
0
0
LINE
5
160
100
AcDbEntity
8
0
100
AcDbLine
10
35.000000000000007
20
-206.50000143051145
30
0
11
32.500000000000007
21
-206.50000143051145
31
0
0
LINE
5
161
100
AcDbEntity
8
0
100
AcDbLine
10
32.500000000000007
20
-206.50000143051145
30
0
11
30.000000000000004
21
-206.50000143051145
31
0
0
LINE
5
162
100
AcDbEntity
8
0
100
AcDbLine
10
30.000000000000004
20
-206.50000143051145
30
0
11
18.000000000000004
21
-206.50000143051145
31
0
0
LINE
5
163
100
AcDbEntity
8
0
100
AcDbLine
10
32.500000000000007
20
-157.50000143051147
30
0
11
32.500000000000007
21
-206.50000143051145
31
0
0
LINE
5
164
100
AcDbEntity
8
0
100
AcDbLine
10
30.000000000000004
20
-206.50000143051145
30
0
11
30.000000000000004
21
-205.50000143051142
31
0
0
LINE
5
165
100
AcDbEntity
8
0
100
AcDbLine
10
30.000000000000004
20
-205.50000143051142
30
0
11
25.000000000000004
21
-205.50000143051142
31
0
0
LINE
5
166
100
AcDbEntity
8
0
100
AcDbLine
10
25.000000000000004
20
-205.50000143051142
30
0
11
25.000000000000004
21
-193.50000143051145
31
0
0
LINE
5
167
100
AcDbEntity
8
0
100
AcDbLine
10
25.000000000000004
20
-193.50000143051145
30
0
11
25.000000000000004
21
-181.50000143051145
31
0
0
LINE
5
168
100
AcDbEntity
8
0
100
AcDbLine
10
30.000000447034836
20
-181.50000143051145
30
0
11
30.000000000000004
21
-205.50000143051142
31
0
0
LINE
5
169
100
AcDbEntity
8
0
100
AcDbLine
10
30.000000447034836
20
-181.50000143051145
30
0
11
30.000000000000004
21
-157.50000143051147
31
0
0
LINE
5
170
100
AcDbEntity
8
0
100
AcDbLine
10
25.000000000000004
20
-193.50000143051145
30
0
11
30.000000223517418
21
-193.50000143051145
31
0
0
LINE
5
171
100
AcDbEntity
8
0
100
AcDbLine
10
25.000000000000004
20
-181.50000143051145
30
0
11
26.000000387430191
21
-181.50000143051145
31
0
0
LINE
5
172
100
AcDbEntity
8
0
100
AcDbLine
10
26.000000387430191
20
-181.50000143051145
30
0
11
30.000000447034836
21
-181.50000143051145
31
0
0
LWPOLYLINE
5
173
100
AcDbEntity
8
0
100
AcDbPolyline
90
3
70
1
43
0.0
10
26.000000387430191
20
-177.00000262260437
10
28.500000387430191
20
-173.00000256299973
10
23.500000387430191
20
-173.00000256299973
0
LWPOLYLINE
5
174
100
AcDbEntity
8
0
100
AcDbPolyline
90
3
70
1
43
0.0
10
23.500000387430191
20
-166.00000256299973
10
28.500000387430191
20
-166.00000256299973
10
26.000000387430191
20
-162.00000250339508
0
CIRCLE
5
175
100
AcDbEntity
8
0
100
AcDbCircle
10
20.000000387430191
20
-163.00000244379044
30
0
40
1.2500000000000004
210
0
220
0
230
1
0
LINE
5
176
100
AcDbEntity
8
0
100
AcDbLine
10
18.000000000000004
20
-206.50000143051145
30
0
11
17.500000000000004
21
-206.50000143051145
31
0
0
LINE
5
177
100
AcDbEntity
8
0
100
AcDbLine
10
17.500000000000004
20
-206.50000143051145
30
0
11
17.500000000000004
21
-209.50000143051145
31
0
0
LINE
5
178
100
AcDbEntity
8
0
100
AcDbLine
10
17.500000000000004
20
-209.50000143051145
30
0
11
18.000000268220901
21
-209.50000143051145
31
0
0
LINE
5
179
100
AcDbEntity
8
0
100
AcDbLine
10
18.000000268220901
20
-209.50000143051145
30
0
11
18.000000268220901
21
-240.50000143051147
31
0
0
LINE
5
180
100
AcDbEntity
8
0
100
AcDbLine
10
18.000000268220901
20
-240.50000143051147
30
0
11
16.500000268220901
21
-240.50000143051147
31
0
0
LINE
5
181
100
AcDbEntity
8
0
100
AcDbLine
10
16.500000268220901
20
-240.50000143051147
30
0
11
16.500000268220901
21
-250.50000143051147
31
0
0
LINE
5
182
100
AcDbEntity
8
0
100
AcDbLine
10
16.500000268220901
20
-250.50000143051147
30
0
11
22.500000268220901
21
-250.50000143051147
31
0
0
LINE
5
183
100
AcDbEntity
8
0
100
AcDbLine
10
22.500000268220901
20
-250.50000143051147
30
0
11
22.500000268220901
21
-254.50000143051145
31
0
0
LINE
5
184
100
AcDbEntity
8
0
100
AcDbLine
10
22.500000268220901
20
-254.50000143051145
30
0
11
16.500000268220901
21
-250.50000143051147
31
0
0
LINE
5
185
100
AcDbEntity
8
0
100
AcDbLine
10
22.500000268220901
20
-254.50000143051145
30
0
11
22.500000268220901
21
-265.50000143051147
31
0
0
LINE
5
186
100
AcDbEntity
8
0
100
AcDbLine
10
22.500000268220901
20
-265.50000143051147
30
0
11
16.500000268220901
21
-269.50000143051147
31
0
0
LINE
5
187
100
AcDbEntity
8
0
100
AcDbLine
10
16.500000268220901
20
-269.50000143051147
30
0
11
16.500000268220901
21
-275.50000143051147
31
0
0
LINE
5
188
100
AcDbEntity
8
0
100
AcDbLine
10
16.500000268220901
20
-275.50000143051147
30
0
11
0
21
-275.50000143051147
31
0
0
CIRCLE
5
189
100
AcDbEntity
8
0
100
AcDbCircle
10
20.000000298023224
20
-178.50000266730785
30
0
40
1.25
210
0
220
0
230
1
0
LINE
5
190
100
AcDbEntity
8
0
100
AcDbLine
10
-17
20
-93.500001326203346
30
0
11
-13.5
21
-96.000001430511475
31
0
0
LINE
5
191
100
AcDbEntity
8
0
100
AcDbLine
10
-17
20
-101.50000143051147
30
0
11
-13.5
21
-104.00000143051147
31
0
0
LINE
5
192
100
AcDbEntity
8
0
100
AcDbLine
10
-11
20
-66
30
0
11
-11
21
-69
31
0
0
LINE
5
193
100
AcDbEntity
8
0
100
AcDbLine
10
-22.500000268220901
20
-265.50000143051142
30
0
11
-16.500000268220901
21
-269.50000143051142
31
0
0
LINE
5
194
100
AcDbEntity
8
0
100
AcDbLine
10
-22.500000268220901
20
-254.50000143051142
30
0
11
-16.500000268220901
21
-250.50000143051142
31
0
0
LINE
5
195
100
AcDbEntity
8
0
100
AcDbLine
10
-17
20
-151.50000143051147
30
0
11
-17
21
-155.50000143051147
31
0
0
LINE
5
196
100
AcDbEntity
8
0
100
AcDbLine
10
-16.500000268220901
20
-240.50000143051142
30
0
11
-16.500000268220901
21
-250.50000143051142
31
0
0
LINE
5
197
100
AcDbEntity
8
0
100
AcDbLine
10
-16.500000268220901
20
-269.50000143051142
30
0
11
-16.500000268220901
21
-275.50000143051142
31
0
0
LINE
5
198
100
AcDbEntity
8
0
100
AcDbLine
10
-17.500000000000004
20
-209.50000143051145
30
0
11
-18.000000268220901
21
-209.50000143051145
31
0
0
LINE
5
199
100
AcDbEntity
8
0
100
AcDbLine
10
-18.000000268220901
20
-209.50000143051145
30
0
11
-18.000000268220901
21
-240.50000143051142
31
0
0
LINE
5
200
100
AcDbEntity
8
0
100
AcDbLine
10
-18.000000268220901
20
-240.50000143051142
30
0
11
-16.500000268220901
21
-240.50000143051142
31
0
0
LINE
5
201
100
AcDbEntity
8
0
100
AcDbLine
10
-22.500000268220901
20
-254.50000143051142
30
0
11
-22.500000268220901
21
-265.50000143051142
31
0
0
LINE
5
202
100
AcDbEntity
8
0
100
AcDbLine
10
-17.500000000000004
20
-206.50000143051145
30
0
11
-17.500000000000004
21
-209.50000143051145
31
0
0
LINE
5
203
100
AcDbEntity
8
0
100
AcDbLine
10
-17
20
-106.50000143051147
30
0
11
-13.5
21
-104.00000143051147
31
0
0
LINE
5
204
100
AcDbEntity
8
0
100
AcDbLine
10
-17
20
-83.500000000000014
30
0
11
-17
21
-86.500000000000028
31
0
0
LINE
5
205
100
AcDbEntity
8
0
100
AcDbLine
10
-17
20
-98.500001430511475
30
0
11
-17
21
-101.50000143051147
31
0
0
LINE
5
206
100
AcDbEntity
8
0
100
AcDbLine
10
-11
20
-69
30
0
11
-9.0000000000000018
21
-69
31
0
0
LINE
5
207
100
AcDbEntity
8
0
100
AcDbLine
10
-13.5
20
-142.00000143051147
30
0
11
-17
21
-144.50000143051147
31
0
0
LINE
5
208
100
AcDbEntity
8
0
100
AcDbLine
10
-17
20
-129.50000143051147
30
0
11
-17
21
-132.50000143051147
31
0
0
LINE
5
209
100
AcDbEntity
8
0
100
AcDbLine
10
-13.5
20
-149.00000143051147
30
0
11
-17
21
-151.50000143051147
31
0
0
LINE
5
210
100
AcDbEntity
8
0
100
AcDbLine
10
-9.5
20
-10
30
0
11
-23.5
21
-10
31
0
0
LINE
5
211
100
AcDbEntity
8
0
100
AcDbLine
10
-13.5
20
-127.00000143051147
30
0
11
-17
21
-124.50000143051147
31
0
0
LINE
5
212
100
AcDbEntity
8
0
100
AcDbLine
10
-17
20
-114.50000143051147
30
0
11
-13.5
21
-112.00000143051147
31
0
0
LINE
5
213
100
AcDbEntity
8
0
100
AcDbLine
10
-16.5
20
-33
30
0
11
-11.500000000000002
21
-33
31
0
0
LINE
5
214
100
AcDbEntity
8
0
100
AcDbLine
10
-15.500000000000004
20
-54
30
0
11
-15.500000000000004
21
-64
31
0
0
LINE
5
215
100
AcDbEntity
8
0
100
AcDbLine
10
-17
20
-114.50000143051147
30
0
11
-17
21
-117.50000143051147
31
0
0
LINE
5
216
100
AcDbEntity
8
0
100
AcDbLine
10
-15.500000000000004
20
-64
30
0
11
-17
21
-64
31
0
0
LINE
5
217
100
AcDbEntity
8
0
100
AcDbLine
10
-17
20
-66
30
0
11
-11
21
-66
31
0
0
LINE
5
218
100
AcDbEntity
8
0
100
AcDbLine
10
-9.0000000000000018
20
-69
30
0
11
-9.0000000000000018
21
-81.000000000000014
31
0
0
LINE
5
219
100
AcDbEntity
8
0
100
AcDbLine
10
-17
20
-122.50000143051147
30
0
11
-13.5
21
-120.00000143051147
31
0
0
LINE
5
220
100
AcDbEntity
8
0
100
AcDbLine
10
-9.0000000000000018
20
-54
30
0
11
-15.500000000000004
21
-54
31
0
0
LINE
5
221
100
AcDbEntity
8
0
100
AcDbLine
10
-9.0000000000000018
20
-38
30
0
11
-9.0000000000000018
21
-54
31
0
0
LINE
5
222
100
AcDbEntity
8
0
100
AcDbLine
10
-17
20
-98.500001430511475
30
0
11
-13.5
21
-96.000001430511475
31
0
0
LINE
5
223
100
AcDbEntity
8
0
100
AcDbLine
10
-17
20
-86.500000000000028
30
0
11
-13.5
21
-89.000001326203346
31
0
0
LINE
5
224
100
AcDbEntity
8
0
100
AcDbLine
10
-18.000000000000004
20
-206.50000143051145
30
0
11
-17.500000000000004
21
-206.50000143051145
31
0
0
LINE
5
225
100
AcDbEntity
8
0
100
AcDbLine
10
-17
20
-139.50000143051147
30
0
11
-13.5
21
-142.00000143051147
31
0
0
LINE
5
226
100
AcDbEntity
8
0
100
AcDbLine
10
-18.000000000000004
20
-155.50000143051147
30
0
11
-18.000000000000004
21
-157.50000143051147
31
0
0
LINE
5
227
100
AcDbEntity
8
0
100
AcDbLine
10
-17
20
-106.50000143051147
30
0
11
-17
21
-109.50000143051149
31
0
0
LINE
5
228
100
AcDbEntity
8
0
100
AcDbLine
10
-17
20
-155.50000143051147
30
0
11
-18.000000000000004
21
-155.50000143051147
31
0
0
LINE
5
229
100
AcDbEntity
8
0
100
AcDbLine
10
-13.5
20
-135.00000143051147
30
0
11
-17
21
-137.50000143051147
31
0
0
LINE
5
230
100
AcDbEntity
8
0
100
AcDbLine
10
-9.0000000000000018
20
-81.000000000000014
30
0
11
-13.5
21
-81.000000000000014
31
0
0
LINE
5
231
100
AcDbEntity
8
0
100
AcDbLine
10
-11.500000000000002
20
-38
30
0
11
-9.0000000000000018
21
-38
31
0
0
LINE
5
232
100
AcDbEntity
8
0
100
AcDbLine
10
-9.5
20
0
30
0
11
-9.5
21
-10
31
0
0
LINE
5
233
100
AcDbEntity
8
0
100
AcDbLine
10
-19.850000000000001
20
-20
30
0
11
-16.5
21
-20
31
0
0
LINE
5
234
100
AcDbEntity
8
0
100
AcDbLine
10
-17
20
-146.50000143051147
30
0
11
-13.5
21
-149.00000143051147
31
0
0
LINE
5
235
100
AcDbEntity
8
0
100
AcDbLine
10
-17
20
-117.50000143051147
30
0
11
-13.5
21
-120.00000143051147
31
0
0
LINE
5
236
100
AcDbEntity
8
0
100
AcDbLine
10
-17
20
-137.50000143051147
30
0
11
-17
21
-139.50000143051147
31
0
0
LINE
5
237
100
AcDbEntity
8
0
100
AcDbLine
10
-17
20
-64
30
0
11
-17
21
-66
31
0
0
LINE
5
238
100
AcDbEntity
8
0
100
AcDbLine
10
-17
20
-109.50000143051149
30
0
11
-13.5
21
-112.00000143051147
31
0
0
LINE
5
239
100
AcDbEntity
8
0
100
AcDbLine
10
-13.5
20
-135.00000143051147
30
0
11
-17
21
-132.50000143051147
31
0
0
LINE
5
240
100
AcDbEntity
8
0
100
AcDbLine
10
-16.5
20
-20
30
0
11
-16.5
21
-33
31
0
0
LINE
5
241
100
AcDbEntity
8
0
100
AcDbLine
10
-23.5
20
-12.999999999999998
30
0
11
-19.850000000000001
21
-12.999999999999998
31
0
0
LINE
5
242
100
AcDbEntity
8
0
100
AcDbLine
10
-13.5
20
-89.000001326203346
30
0
11
-17
21
-91.500001326203346
31
0
0
LINE
5
243
100
AcDbEntity
8
0
100
AcDbLine
10
-17
20
-91.500001326203346
30
0
11
-17
21
-93.500001326203346
31
0
0
LINE
5
244
100
AcDbEntity
8
0
100
AcDbLine
10
-11.500000000000002
20
-33
30
0
11
-11.500000000000002
21
-38
31
0
0
LINE
5
245
100
AcDbEntity
8
0
100
AcDbLine
10
-23.5
20
-10
30
0
11
-23.5
21
-12.999999999999998
31
0
0
LINE
5
246
100
AcDbEntity
8
0
100
AcDbLine
10
-13.5
20
-81.000000000000014
30
0
11
-17
21
-83.500000000000014
31
0
0
LINE
5
247
100
AcDbEntity
8
0
100
AcDbLine
10
-18.000000000000004
20
-157.50000143051147
30
0
11
-18.000000000000004
21
-206.50000143051145
31
0
0
LINE
5
248
100
AcDbEntity
8
0
100
AcDbLine
10
-17
20
-122.50000143051147
30
0
11
-17
21
-124.50000143051147
31
0
0
LINE
5
249
100
AcDbEntity
8
0
100
AcDbLine
10
-13.5
20
-127.00000143051147
30
0
11
-17
21
-129.50000143051147
31
0
0
LINE
5
250
100
AcDbEntity
8
0
100
AcDbLine
10
-19.850000000000001
20
-12.999999999999998
30
0
11
-19.850000000000001
21
-20
31
0
0
LINE
5
251
100
AcDbEntity
8
0
100
AcDbLine
10
-17
20
-144.50000143051147
30
0
11
-17
21
-146.50000143051147
31
0
0
LINE
5
252
100
AcDbEntity
8
0
100
AcDbLine
10
0
20
0
30
0
11
-9.5
21
0
31
0
0
LINE
5
253
100
AcDbEntity
8
0
100
AcDbLine
10
-16.500000268220901
20
-275.50000143051142
30
0
11
0
21
-275.50000143051142
31
0
0
LINE
5
254
100
AcDbEntity
8
0
100
AcDbLine
10
0
20
-54
30
0
11
0
21
-275.50000143051147
31
0
0
LINE
5
255
100
AcDbEntity
8
0
100
AcDbLine
10
17.500000000000004
20
-206.50000143051145
30
0
11
12.500000000000002
21
-206.50000143051145
31
0
0
LINE
5
256
100
AcDbEntity
8
0
100
AcDbLine
10
12.500000000000002
20
-206.50000143051145
30
0
11
12.500000000000002
21
-157.50000143051147
31
0
0
LINE
5
257
100
AcDbEntity
8
0
100
AcDbLine
10
18.000000000000004
20
-157.50000143051147
30
0
11
12.500000000000002
21
-157.50000143051147
31
0
0
LINE
5
258
100
AcDbEntity
8
0
100
AcDbLine
10
0
20
0
30
0
11
0
21
-3.0000000447034836
31
0
0
LINE
5
259
100
AcDbEntity
8
0
100
AcDbLine
10
0
20
-3.0000000447034836
30
0
11
4.5
21
-3.0000000447034836
31
0
0
LINE
5
260
100
AcDbEntity
8
0
100
AcDbLine
10
4.5
20
-3.0000000447034836
30
0
11
4.5
21
0
31
0
0
LINE
5
261
100
AcDbEntity
8
0
100
AcDbLine
10
0
20
-3.0000000447034836
30
0
11
-4.5
21
-3.0000000447034836
31
0
0
LINE
5
262
100
AcDbEntity
8
0
100
AcDbLine
10
-4.5
20
-3.0000000447034836
30
0
11
-4.5
21
0
31
0
0
LINE
5
263
100
AcDbEntity
8
0
100
AcDbLine
10
0
20
-3.0000000447034836
30
0
11
0
21
-13
31
0
0
LINE
5
264
100
AcDbEntity
8
0
100
AcDbLine
10
35.500000268220901
20
-160.00000238418579
30
0
11
35.500000268220901
21
-161.37500238418579
31
0
0
LINE
5
265
100
AcDbEntity
8
0
100
AcDbLine
10
35.500000268220901
20
-160.00000238418579
30
0
11
35.000000000000007
21
-160.00000238418579
31
0
0
LINE
5
266
100
AcDbEntity
8
0
100
AcDbLine
10
35.500000268220901
20
-161.37500238418579
30
0
11
35.000000000000007
21
-161.37500238418579
31
0
0
LINE
5
267
100
AcDbEntity
8
0
100
AcDbLine
10
35.500000268220901
20
-165.25000238418579
30
0
11
35.000000000000007
21
-165.25000238418579
31
0
0
LINE
5
268
100
AcDbEntity
8
0
100
AcDbLine
10
35.500000268220901
20
-163.87500238418579
30
0
11
35.000000000000007
21
-163.87500238418579
31
0
0
LINE
5
269
100
AcDbEntity
8
0
100
AcDbLine
10
35.500000268220901
20
-163.87500238418579
30
0
11
35.500000268220901
21
-165.25000238418579
31
0
0
LINE
5
270
100
AcDbEntity
8
0
100
AcDbLine
10
35.500000268220901
20
-169.12500238418576
30
0
11
35.000000000000007
21
-169.12500238418576
31
0
0
LINE
5
271
100
AcDbEntity
8
0
100
AcDbLine
10
35.500000268220901
20
-167.75000238418579
30
0
11
35.000000000000007
21
-167.75000238418579
31
0
0
LINE
5
272
100
AcDbEntity
8
0
100
AcDbLine
10
35.500000268220901
20
-167.75000238418579
30
0
11
35.500000268220901
21
-169.12500238418576
31
0
0
LINE
5
273
100
AcDbEntity
8
0
100
AcDbLine
10
35.500000268220901
20
-173.00000238418579
30
0
11
35.000000000000007
21
-173.00000238418579
31
0
0
LINE
5
274
100
AcDbEntity
8
0
100
AcDbLine
10
35.500000268220901
20
-171.62500238418579
30
0
11
35.000000000000007
21
-171.62500238418579
31
0
0
LINE
5
275
100
AcDbEntity
8
0
100
AcDbLine
10
35.500000268220901
20
-171.62500238418579
30
0
11
35.500000268220901
21
-173.00000238418579
31
0
0
LINE
5
276
100
AcDbEntity
8
0
100
AcDbLine
10
35.500000268220901
20
-176.87500238418579
30
0
11
35.000000000000007
21
-176.87500238418579
31
0
0
LINE
5
277
100
AcDbEntity
8
0
100
AcDbLine
10
35.500000268220901
20
-175.50000238418579
30
0
11
35.000000000000007
21
-175.50000238418579
31
0
0
LINE
5
278
100
AcDbEntity
8
0
100
AcDbLine
10
35.500000268220901
20
-175.50000238418579
30
0
11
35.500000268220901
21
-176.87500238418579
31
0
0
LINE
5
279
100
AcDbEntity
8
0
100
AcDbLine
10
35.500000268220901
20
-180.75000238418579
30
0
11
35.000000000000007
21
-180.75000238418579
31
0
0
LINE
5
280
100
AcDbEntity
8
0
100
AcDbLine
10
35.500000268220901
20
-179.37500238418579
30
0
11
35.000000000000007
21
-179.37500238418579
31
0
0
LINE
5
281
100
AcDbEntity
8
0
100
AcDbLine
10
35.500000268220901
20
-179.37500238418579
30
0
11
35.500000268220901
21
-180.75000238418579
31
0
0
LINE
5
282
100
AcDbEntity
8
0
100
AcDbLine
10
35.500000268220901
20
-184.62500238418579
30
0
11
35.000000000000007
21
-184.62500238418579
31
0
0
LINE
5
283
100
AcDbEntity
8
0
100
AcDbLine
10
35.500000268220901
20
-183.25000238418579
30
0
11
35.000000000000007
21
-183.25000238418579
31
0
0
LINE
5
284
100
AcDbEntity
8
0
100
AcDbLine
10
35.500000268220901
20
-183.25000238418579
30
0
11
35.500000268220901
21
-184.62500238418579
31
0
0
LINE
5
285
100
AcDbEntity
8
0
100
AcDbLine
10
35.500000268220901
20
-188.50000238418576
30
0
11
35.000000000000007
21
-188.50000238418576
31
0
0
LINE
5
286
100
AcDbEntity
8
0
100
AcDbLine
10
35.500000268220901
20
-187.12500238418579
30
0
11
35.000000000000007
21
-187.12500238418579
31
0
0
LINE
5
287
100
AcDbEntity
8
0
100
AcDbLine
10
35.500000268220901
20
-187.12500238418579
30
0
11
35.500000268220901
21
-188.50000238418576
31
0
0
LINE
5
288
100
AcDbEntity
8
0
100
AcDbLine
10
35.500000268220901
20
-192.37500238418576
30
0
11
35.000000000000007
21
-192.37500238418576
31
0
0
LINE
5
289
100
AcDbEntity
8
0
100
AcDbLine
10
35.500000268220901
20
-191.00000238418579
30
0
11
35.000000000000007
21
-191.00000238418579
31
0
0
LINE
5
290
100
AcDbEntity
8
0
100
AcDbLine
10
35.500000268220901
20
-191.00000238418579
30
0
11
35.500000268220901
21
-192.37500238418576
31
0
0
LINE
5
291
100
AcDbEntity
8
0
100
AcDbLine
10
35.500000268220901
20
-196.25000238418579
30
0
11
35.000000000000007
21
-196.25000238418579
31
0
0
LINE
5
292
100
AcDbEntity
8
0
100
AcDbLine
10
35.500000268220901
20
-194.87500238418579
30
0
11
35.000000000000007
21
-194.87500238418579
31
0
0
LINE
5
293
100
AcDbEntity
8
0
100
AcDbLine
10
35.500000268220901
20
-194.87500238418579
30
0
11
35.500000268220901
21
-196.25000238418579
31
0
0
LINE
5
294
100
AcDbEntity
8
0
100
AcDbLine
10
35.500000268220901
20
-200.12500238418579
30
0
11
35.000000000000007
21
-200.12500238418579
31
0
0
LINE
5
295
100
AcDbEntity
8
0
100
AcDbLine
10
35.500000268220901
20
-198.75000238418579
30
0
11
35.000000000000007
21
-198.75000238418579
31
0
0
LINE
5
296
100
AcDbEntity
8
0
100
AcDbLine
10
35.500000268220901
20
-198.75000238418579
30
0
11
35.500000268220901
21
-200.12500238418579
31
0
0
LINE
5
297
100
AcDbEntity
8
0
100
AcDbLine
10
35.500000268220901
20
-204.00000238418579
30
0
11
35.000000000000007
21
-204.00000238418579
31
0
0
LINE
5
298
100
AcDbEntity
8
0
100
AcDbLine
10
35.500000268220901
20
-202.62500238418579
30
0
11
35.000000000000007
21
-202.62500238418579
31
0
0
LINE
5
299
100
AcDbEntity
8
0
100
AcDbLine
10
35.500000268220901
20
-202.62500238418579
30
0
11
35.500000268220901
21
-204.00000238418579
31
0
0
LINE
5
300
100
AcDbEntity
8
0
100
AcDbLine
10
25.000000000000004
20
-193.75000143051142
30
0
11
30.000000218860805
21
-193.75000152364368
31
0
0
LINE
5
301
100
AcDbEntity
8
0
100
AcDbLine
10
25.000000000000004
20
-193.25000143051145
30
0
11
30.000000218860805
21
-193.25000133737919
31
0
0
LINE
5
302
100
AcDbEntity
8
0
100
AcDbLine
10
20.823606941251498
20
-179.44030692510438
30
0
11
19.036969347133166
21
-177.70308900345975
31
0
0
LINE
5
303
100
AcDbEntity
8
0
100
AcDbLine
10
20.963031248913317
20
-179.29691633115593
30
0
11
19.176393654795021
21
-177.55969840951127
31
0
0
LINE
5
304
100
AcDbEntity
8
0
100
AcDbLine
10
20.810315221115342
20
-162.04821997373239
30
0
11
19.048260483236774
21
-163.81036727197949
31
0
0
LINE
5
305
100
AcDbEntity
8
0
100
AcDbLine
10
20.951740291623548
20
-162.1896376156013
30
0
11
19.189685553744972
21
-163.9517849138484
31
0
0
ENDSEC
0
SECTION
2
OBJECTS
0
DICTIONARY
5
C
100
AcDbDictionary
3
ACAD_GROUP
350
D
3
ACAD_MLINESTYLE
350
17
0
DICTIONARY
5
D
100
AcDbDictionary
0
DICTIONARY
5
1A
330
C
100
AcDbDictionary
0
DICTIONARY
5
17
100
AcDbDictionary
0
ENDSEC
0
EOF
